<svg xmlns="http://www.w3.org/2000/svg" xmlns:xlink="http://www.w3.org/1999/xlink" version="1.1" width="1000" height="1000" viewBox="0 0 1000 1000" xml:space="preserve">
<desc>Created with Fabric.js 3.5.0</desc>
<defs>
</defs>
<rect x="0" y="0" width="100%" height="100%" fill="rgba(255,255,255,0)"/>
<g transform="matrix(5.6118 0 0 5.6118 499.9982 414.7566)" id="753884">
<path style="stroke: none; stroke-width: 1; stroke-dasharray: none; stroke-linecap: butt; stroke-dashoffset: 0; stroke-linejoin: miter; stroke-miterlimit: 4; is-custom-font: none; font-file-url: none; fill: rgb(253,104,59); fill-rule: nonzero; opacity: 1;" vector-effect="non-scaling-stroke" transform=" translate(-45, -45)" d="M 49.89746 16.12451 L 67.79102 53.4292 l -1.47461 4.91309 L 55.82715 44.00732 l -4.09082 5.86426 l -10.58496 -13.3457 L 49.89746 16.12451 z M 23.88086 35.79053 l 6.52734 7.14648 l 3.83105 -7.66602 l 5.12891 2.22656 l 12.4707 15.72266 l 4.02734 -5.77246 l 11.20996 15.31934 l 2.67188 -8.89844 l 2.42188 -2.48535 l 10.50781 22.49219 H 7.32227 L 23.88086 35.79053 z" stroke-linecap="round"/>
</g>
<g transform="matrix(1 0 0 1 526.5332 647.3684)" style="" id="25284">
		
<path xml:space="preserve" font-family="Aldrich" font-size="76" font-style="normal" font-weight="normal" style="stroke: none; stroke-width: 1; stroke-dasharray: none; stroke-linecap: butt; stroke-dashoffset: 0; stroke-linejoin: miter; stroke-miterlimit: 4; is-custom-font: none; font-file-url: none; fill: rgb(255,255,255); fill-rule: nonzero; opacity: 1; white-space: pre;" d="M-263.53-29.34L-255.92-29.34L-255.92 16.27L-228.57 16.27L-228.57 23.87L-263.53 23.87L-263.53-29.34ZM-220.18 16.56L-220.18 6.62Q-220.18 5.10-219.61 3.78Q-219.03 2.46-218.05 1.46Q-217.07 0.46-215.73-0.12Q-214.39-0.69-212.91-0.69L-212.91-0.69L-194.06-0.69L-194.06-8.34L-217.92-8.34L-217.92-15.65L-194.06-15.65Q-192.54-15.65-191.20-15.07Q-189.86-14.50-188.88-13.51Q-187.90-12.53-187.32-11.19Q-186.75-9.86-186.75-8.34L-186.75-8.34L-186.75 23.87L-194.06 23.87L-194.06 17.19Q-194.17 18.57-194.80 19.79Q-195.43 21.02-196.41 21.93Q-197.40 22.84-198.66 23.36Q-199.92 23.87-201.33 23.87L-201.33 23.87L-212.91 23.87Q-214.39 23.87-215.73 23.30Q-217.07 22.72-218.05 21.74Q-219.03 20.76-219.61 19.42Q-220.18 18.09-220.18 16.56L-220.18 16.56ZM-212.91 6.62L-212.91 16.56L-194.06 16.56L-194.06 6.62L-212.91 6.62ZM-155.72 23.87L-163.33 23.87L-179.14-15.65L-171.53-15.65L-159.55 15.12L-147.52-15.65L-139.91-15.65L-155.72 23.87ZM-132.31 16.56L-132.31 6.62Q-132.31 5.10-131.73 3.78Q-131.16 2.46-130.17 1.46Q-129.19 0.46-127.85-0.12Q-126.52-0.69-125.03-0.69L-125.03-0.69L-106.18-0.69L-106.18-8.34L-130.04-8.34L-130.04-15.65L-106.18-15.65Q-104.66-15.65-103.32-15.07Q-101.99-14.50-101.01-13.51Q-100.02-12.53-99.45-11.19Q-98.87-9.86-98.87-8.34L-98.87-8.34L-98.87 23.87L-106.18 23.87L-106.18 17.19Q-106.29 18.57-106.92 19.79Q-107.56 21.02-108.54 21.93Q-109.52 22.84-110.78 23.36Q-112.05 23.87-113.46 23.87L-113.46 23.87L-125.03 23.87Q-126.52 23.87-127.85 23.30Q-129.19 22.72-130.17 21.74Q-131.16 20.76-131.73 19.42Q-132.31 18.09-132.31 16.56L-132.31 16.56ZM-125.03 6.62L-125.03 16.56L-106.18 16.56L-106.18 6.62L-125.03 6.62ZM-63.17 23.87L-63.17-29.34L-24.39-29.34L-24.39-21.73L-55.57-21.73L-55.57-6.52L-28.96-6.52L-28.96 1.09L-55.57 1.09L-55.57 23.87L-63.17 23.87ZM-14.15-15.65L-6.84-15.65L-6.84 23.87L-14.15 23.87L-14.15-15.65ZM-14.52-23.25L-14.52-30.86L-6.47-30.86L-6.47-23.25L-14.52-23.25ZM40.66-8.34L40.66 23.87L33.35 23.87L33.35-8.34L12.98-8.34L12.98 23.87L5.70 23.87L5.70-15.65L12.98-15.65L12.98-8.67Q13.05-10.12 13.64-11.40Q14.24-12.68 15.22-13.62Q16.20-14.57 17.50-15.11Q18.80-15.65 20.29-15.65L20.29-15.65L33.35-15.65Q34.87-15.65 36.21-15.07Q37.54-14.50 38.53-13.51Q39.51-12.53 40.08-11.19Q40.66-9.86 40.66-8.34L40.66-8.34ZM52.83 16.56L52.83 6.62Q52.83 5.10 53.41 3.78Q53.98 2.46 54.97 1.46Q55.95 0.46 57.28-0.12Q58.62-0.69 60.10-0.69L60.10-0.69L78.96-0.69L78.96-8.34L55.10-8.34L55.10-15.65L78.96-15.65Q80.48-15.65 81.81-15.07Q83.15-14.50 84.13-13.51Q85.12-12.53 85.69-11.19Q86.27-9.86 86.27-8.34L86.27-8.34L86.27 23.87L78.96 23.87L78.96 17.19Q78.85 18.57 78.21 19.79Q77.58 21.02 76.60 21.93Q75.62 22.84 74.35 23.36Q73.09 23.87 71.68 23.87L71.68 23.87L60.10 23.87Q58.62 23.87 57.28 23.30Q55.95 22.72 54.97 21.74Q53.98 20.76 53.41 19.42Q52.83 18.09 52.83 16.56L52.83 16.56ZM60.10 6.62L60.10 16.56L78.96 16.56L78.96 6.62L60.10 6.62ZM133.40-8.34L133.40 23.87L126.09 23.87L126.09-8.34L105.71-8.34L105.71 23.87L98.44 23.87L98.44-15.65L105.71-15.65L105.71-8.67Q105.79-10.12 106.38-11.40Q106.97-12.68 107.96-13.62Q108.94-14.57 110.24-15.11Q111.54-15.65 113.02-15.65L113.02-15.65L126.09-15.65Q127.61-15.65 128.94-15.07Q130.28-14.50 131.26-13.51Q132.25-12.53 132.82-11.19Q133.40-9.86 133.40-8.34L133.40-8.34ZM171.69-8.34L152.84-8.34L152.84 16.56L171.69 16.56L171.69 9.88L179.00 9.88L179.00 16.56Q179.00 18.09 178.43 19.42Q177.85 20.76 176.87 21.74Q175.89 22.72 174.55 23.30Q173.21 23.87 171.69 23.87L171.69 23.87L152.84 23.87Q151.36 23.87 150.02 23.30Q148.68 22.72 147.70 21.74Q146.72 20.76 146.14 19.42Q145.57 18.09 145.57 16.56L145.57 16.56L145.57-8.34Q145.57-9.86 146.14-11.19Q146.72-12.53 147.70-13.51Q148.68-14.50 150.02-15.07Q151.36-15.65 152.84-15.65L152.84-15.65L171.69-15.65Q173.21-15.65 174.55-15.07Q175.89-14.50 176.87-13.51Q177.85-12.53 178.43-11.19Q179.00-9.86 179.00-8.34L179.00-8.34L179.00-1.66L171.69-1.66L171.69-8.34ZM191.55-15.65L198.86-15.65L198.86 23.87L191.55 23.87L191.55-15.65ZM191.18-23.25L191.18-30.86L199.23-30.86L199.23-23.25L191.18-23.25ZM211.40 16.56L211.40 6.62Q211.40 5.10 211.97 3.78Q212.55 2.46 213.53 1.46Q214.52 0.46 215.85-0.12Q217.19-0.69 218.67-0.69L218.67-0.69L237.52-0.69L237.52-8.34L213.66-8.34L213.66-15.65L237.52-15.65Q239.05-15.65 240.38-15.07Q241.72-14.50 242.70-13.51Q243.68-12.53 244.26-11.19Q244.84-9.86 244.84-8.34L244.84-8.34L244.84 23.87L237.52 23.87L237.52 17.19Q237.41 18.57 236.78 19.79Q236.15 21.02 235.17 21.93Q234.18 22.84 232.92 23.36Q231.66 23.87 230.25 23.87L230.25 23.87L218.67 23.87Q217.19 23.87 215.85 23.30Q214.52 22.72 213.53 21.74Q212.55 20.76 211.97 19.42Q211.40 18.09 211.40 16.56L211.40 16.56ZM218.67 6.62L218.67 16.56L237.52 16.56L237.52 6.62L218.67 6.62ZM257.01-30.86L264.28-30.86L264.28 23.87L257.01 23.87L257.01-30.86Z"/></g>
</svg>