<svg xmlns="http://www.w3.org/2000/svg" xmlns:xlink="http://www.w3.org/1999/xlink" version="1.1" width="1000" height="1000" viewBox="0 0 1000 1000" xml:space="preserve">
<desc>Created with Fabric.js 3.5.0</desc>
<defs>
</defs>
<rect x="0" y="0" width="100%" height="100%" fill="rgba(255,255,255,0)"/>
<g transform="matrix(5.6118 0 0 5.6118 499.4982 414.2566)" id="328125">
<path style="stroke: none; stroke-width: 0; stroke-dasharray: none; stroke-linecap: butt; stroke-dashoffset: 0; stroke-linejoin: miter; stroke-miterlimit: 4; is-custom-font: none; font-file-url: none; fill: rgb(253,104,59); fill-rule: nonzero; opacity: 1;" vector-effect="non-scaling-stroke" transform=" translate(-45, -45)" d="M 49.89746 16.12451 L 67.79102 53.4292 l -1.47461 4.91309 L 55.82715 44.00732 l -4.09082 5.86426 l -10.58496 -13.3457 L 49.89746 16.12451 z M 23.88086 35.79053 l 6.52734 7.14648 l 3.83105 -7.66602 l 5.12891 2.22656 l 12.4707 15.72266 l 4.02734 -5.77246 l 11.20996 15.31934 l 2.67188 -8.89844 l 2.42188 -2.48535 l 10.50781 22.49219 H 7.32227 L 23.88086 35.79053 z" stroke-linecap="round"/>
</g>
<g transform="matrix(1 0 0 1 531.5789 647.3298)" style="" id="888874">
		
<path xml:space="preserve" font-family="Aldrich" font-size="106" font-style="normal" font-weight="normal" style="stroke: none; stroke-width: 0; stroke-dasharray: none; stroke-linecap: butt; stroke-dashoffset: 0; stroke-linejoin: miter; stroke-miterlimit: 4; is-custom-font: none; font-file-url: none; fill: rgb(255,255,255); fill-rule: nonzero; opacity: 1; white-space: pre;" d="M-367.55-40.92L-356.94-40.92L-356.94 22.69L-318.79 22.69L-318.79 33.30L-367.55 33.30L-367.55-40.92ZM-307.10 23.10L-307.10 9.23Q-307.10 7.11-306.29 5.27Q-305.49 3.43-304.12 2.04Q-302.75 0.64-300.89-0.16Q-299.02-0.96-296.95-0.96L-296.95-0.96L-270.66-0.96L-270.66-11.63L-303.94-11.63L-303.94-21.82L-270.66-21.82Q-268.54-21.82-266.67-21.02Q-264.81-20.22-263.44-18.85Q-262.07-17.48-261.26-15.61Q-260.46-13.75-260.46-11.63L-260.46-11.63L-260.46 33.30L-270.66 33.30L-270.66 23.98Q-270.81 25.90-271.69 27.61Q-272.57 29.31-273.95 30.58Q-275.32 31.85-277.08 32.57Q-278.84 33.30-280.80 33.30L-280.80 33.30L-296.95 33.30Q-299.02 33.30-300.89 32.50Q-302.75 31.69-304.12 30.32Q-305.49 28.95-306.29 27.09Q-307.10 25.22-307.10 23.10L-307.10 23.10ZM-296.95 9.23L-296.95 23.10L-270.66 23.10L-270.66 9.23L-296.95 9.23ZM-217.19 33.30L-227.80 33.30L-249.85-21.82L-239.24-21.82L-222.52 21.08L-205.75-21.82L-195.14-21.82L-217.19 33.30ZM-184.53 23.10L-184.53 9.23Q-184.53 7.11-183.73 5.27Q-182.93 3.43-181.56 2.04Q-180.19 0.64-178.32-0.16Q-176.46-0.96-174.39-0.96L-174.39-0.96L-148.10-0.96L-148.10-11.63L-181.38-11.63L-181.38-21.82L-148.10-21.82Q-145.97-21.82-144.11-21.02Q-142.25-20.22-140.88-18.85Q-139.50-17.48-138.70-15.61Q-137.90-13.75-137.90-11.63L-137.90-11.63L-137.90 33.30L-148.10 33.30L-148.10 23.98Q-148.25 25.90-149.13 27.61Q-150.01 29.31-151.38 30.58Q-152.75 31.85-154.51 32.57Q-156.27 33.30-158.24 33.30L-158.24 33.30L-174.39 33.30Q-176.46 33.30-178.32 32.50Q-180.19 31.69-181.56 30.32Q-182.93 28.95-183.73 27.09Q-184.53 25.22-184.53 23.10L-184.53 23.10ZM-174.39 9.23L-174.39 23.10L-148.10 23.10L-148.10 9.23L-174.39 9.23ZM-88.11 33.30L-88.11-40.92L-34.02-40.92L-34.02-30.31L-77.50-30.31L-77.50-9.09L-40.39-9.09L-40.39 1.52L-77.50 1.52L-77.50 33.30L-88.11 33.30ZM-19.74-21.82L-9.54-21.82L-9.54 33.30L-19.74 33.30L-19.74-21.82ZM-20.25-32.43L-20.25-43.04L-9.02-43.04L-9.02-32.43L-20.25-32.43ZM56.71-11.63L56.71 33.30L46.51 33.30L46.51-11.63L18.10-11.63L18.10 33.30L7.95 33.30L7.95-21.82L18.10-21.82L18.10-12.09Q18.20-14.11 19.03-15.90Q19.86-17.68 21.23-19.00Q22.60-20.32 24.41-21.07Q26.22-21.82 28.29-21.82L28.29-21.82L46.51-21.82Q48.64-21.82 50.50-21.02Q52.36-20.22 53.73-18.85Q55.10-17.48 55.91-15.61Q56.71-13.75 56.71-11.63L56.71-11.63ZM73.69 23.10L73.69 9.23Q73.69 7.11 74.49 5.27Q75.29 3.43 76.66 2.04Q78.03 0.64 79.90-0.16Q81.76-0.96 83.83-0.96L83.83-0.96L110.12-0.96L110.12-11.63L76.84-11.63L76.84-21.82L110.12-21.82Q112.25-21.82 114.11-21.02Q115.97-20.22 117.34-18.85Q118.72-17.48 119.52-15.61Q120.32-13.75 120.32-11.63L120.32-11.63L120.32 33.30L110.12 33.30L110.12 23.98Q109.97 25.90 109.09 27.61Q108.21 29.31 106.84 30.58Q105.47 31.85 103.71 32.57Q101.95 33.30 99.98 33.30L99.98 33.30L83.83 33.30Q81.76 33.30 79.90 32.50Q78.03 31.69 76.66 30.32Q75.29 28.95 74.49 27.09Q73.69 25.22 73.69 23.10L73.69 23.10ZM83.83 9.23L83.83 23.10L110.12 23.10L110.12 9.23L83.83 9.23ZM186.05-11.63L186.05 33.30L175.86 33.30L175.86-11.63L147.44-11.63L147.44 33.30L137.30 33.30L137.30-21.82L147.44-21.82L147.44-12.09Q147.54-14.11 148.37-15.90Q149.20-17.68 150.57-19.00Q151.94-20.32 153.76-21.07Q155.57-21.82 157.64-21.82L157.64-21.82L175.86-21.82Q177.98-21.82 179.84-21.02Q181.70-20.22 183.08-18.85Q184.45-17.48 185.25-15.61Q186.05-13.75 186.05-11.63L186.05-11.63ZM239.47-11.63L213.17-11.63L213.17 23.10L239.47 23.10L239.47 13.79L249.66 13.79L249.66 23.10Q249.66 25.22 248.86 27.09Q248.06 28.95 246.69 30.32Q245.31 31.69 243.45 32.50Q241.59 33.30 239.47 33.30L239.47 33.30L213.17 33.30Q211.10 33.30 209.24 32.50Q207.38 31.69 206.00 30.32Q204.63 28.95 203.83 27.09Q203.03 25.22 203.03 23.10L203.03 23.10L203.03-11.63Q203.03-13.75 203.83-15.61Q204.63-17.48 206.00-18.85Q207.38-20.22 209.24-21.02Q211.10-21.82 213.17-21.82L213.17-21.82L239.47-21.82Q241.59-21.82 243.45-21.02Q245.31-20.22 246.69-18.85Q248.06-17.48 248.86-15.61Q249.66-13.75 249.66-11.63L249.66-11.63L249.66-2.31L239.47-2.31L239.47-11.63ZM267.16-21.82L277.35-21.82L277.35 33.30L267.16 33.30L267.16-21.82ZM266.64-32.43L266.64-43.04L277.87-43.04L277.87-32.43L266.64-32.43ZM294.85 23.10L294.85 9.23Q294.85 7.11 295.65 5.27Q296.45 3.43 297.82 2.04Q299.19 0.64 301.06-0.16Q302.92-0.96 304.99-0.96L304.99-0.96L331.28-0.96L331.28-11.63L298.00-11.63L298.00-21.82L331.28-21.82Q333.41-21.82 335.27-21.02Q337.13-20.22 338.50-18.85Q339.88-17.48 340.68-15.61Q341.48-13.75 341.48-11.63L341.48-11.63L341.48 33.30L331.28 33.30L331.28 23.98Q331.13 25.90 330.25 27.61Q329.37 29.31 328.00 30.58Q326.63 31.85 324.87 32.57Q323.11 33.30 321.14 33.30L321.14 33.30L304.99 33.30Q302.92 33.30 301.06 32.50Q299.19 31.69 297.82 30.32Q296.45 28.95 295.65 27.09Q294.85 25.22 294.85 23.10L294.85 23.10ZM304.99 9.23L304.99 23.10L331.28 23.10L331.28 9.23L304.99 9.23ZM358.46-43.04L368.60-43.04L368.60 33.30L358.46 33.30L358.46-43.04Z"/></g>
</svg>